<?xml version="1.0" encoding="UTF-8"?> <svg xmlns="http://www.w3.org/2000/svg" width="359" height="64" viewBox="0 0 359 64" fill="none"><path d="M122.556 35V22.94H120.36V17.936H122.556V16.82C122.556 14.9 123.108 13.316 124.212 12.068C125.316 10.796 126.972 10.16 129.18 10.16C130.116 10.16 130.944 10.232 131.664 10.376C132.408 10.52 133.104 10.724 133.752 10.988V15.38C133.392 15.26 133.032 15.164 132.672 15.092C132.336 15.02 131.976 14.984 131.592 14.984C130.728 14.984 130.128 15.14 129.792 15.452C129.48 15.764 129.324 16.268 129.324 16.964V17.936H133.356L133.068 22.94H129.324V35H122.556Z" fill="white"></path><path d="M139.007 35.36C137.927 35.36 136.919 35.168 135.983 34.784C135.071 34.4 134.339 33.8 133.787 32.984C133.235 32.168 132.959 31.136 132.959 29.888C132.959 28.088 133.559 26.696 134.759 25.712C135.959 24.704 137.771 24.2 140.195 24.2H144.623V23.876C144.623 23.204 144.347 22.712 143.795 22.4C143.243 22.088 142.271 21.932 140.879 21.932C138.911 21.932 136.967 22.232 135.047 22.832V18.764C135.911 18.428 136.991 18.152 138.287 17.936C139.583 17.696 140.903 17.576 142.247 17.576C144.959 17.576 147.107 18.128 148.691 19.232C150.275 20.336 151.067 22.088 151.067 24.488V35H145.163L144.839 33.632C144.239 34.16 143.459 34.58 142.499 34.892C141.563 35.204 140.399 35.36 139.007 35.36ZM141.311 31.4C142.079 31.4 142.727 31.268 143.255 31.004C143.807 30.74 144.263 30.416 144.623 30.032V27.908H141.347C139.859 27.908 139.115 28.496 139.115 29.672C139.115 30.824 139.847 31.4 141.311 31.4Z" fill="white"></path><path d="M155.328 15.668V10.772H162.636V15.668H155.328ZM155.868 35V22.868H153.384L153.96 17.936H162.636V35H155.868Z" fill="white"></path><path d="M165.882 35V17.936H172.398L172.578 19.304C173.274 18.896 174.162 18.524 175.242 18.188C176.322 17.852 177.414 17.648 178.518 17.576V22.616C177.894 22.664 177.21 22.748 176.466 22.868C175.746 22.988 175.038 23.144 174.342 23.336C173.67 23.504 173.106 23.696 172.65 23.912V35H165.882Z" fill="white"></path><path d="M186.232 35.36C184.144 35.36 182.656 34.916 181.768 34.028C180.88 33.14 180.436 31.748 180.436 29.852V10.736H187.204V29.096C187.204 29.624 187.312 29.984 187.528 30.176C187.744 30.344 188.08 30.428 188.536 30.428C188.848 30.428 189.148 30.404 189.436 30.356C189.748 30.308 190.036 30.236 190.3 30.14V34.64C189.676 34.88 189.064 35.06 188.464 35.18C187.888 35.3 187.144 35.36 186.232 35.36Z" fill="white"></path><path d="M195.301 41.336C194.341 41.336 193.525 41.276 192.853 41.156C192.205 41.06 191.557 40.892 190.909 40.652V36.044C191.293 36.188 191.653 36.284 191.989 36.332C192.349 36.38 192.721 36.404 193.105 36.404C194.065 36.404 194.761 36.284 195.193 36.044C195.649 35.804 196.105 35.324 196.561 34.604L188.857 17.936H195.949L199.945 27.98L203.833 17.936H210.889L204.589 33.38C203.605 35.804 202.393 37.736 200.953 39.176C199.537 40.616 197.653 41.336 195.301 41.336Z" fill="white"></path><path d="M227.365 35.36C225.085 35.36 223.429 34.784 222.397 33.632C221.365 32.48 220.849 30.92 220.849 28.952V22.94H218.617V17.936H220.849V14.444L227.617 12.824V17.936H231.541L231.289 22.94H227.617V28.448C227.617 29.168 227.797 29.684 228.157 29.996C228.517 30.284 229.069 30.428 229.813 30.428C230.509 30.428 231.217 30.308 231.937 30.068V34.568C230.665 35.096 229.141 35.36 227.365 35.36Z" fill="white"></path><path d="M239.061 35.36C237.981 35.36 236.973 35.168 236.037 34.784C235.125 34.4 234.393 33.8 233.841 32.984C233.289 32.168 233.013 31.136 233.013 29.888C233.013 28.088 233.613 26.696 234.813 25.712C236.013 24.704 237.825 24.2 240.249 24.2H244.677V23.876C244.677 23.204 244.401 22.712 243.849 22.4C243.297 22.088 242.325 21.932 240.933 21.932C238.965 21.932 237.021 22.232 235.101 22.832V18.764C235.965 18.428 237.045 18.152 238.341 17.936C239.637 17.696 240.957 17.576 242.301 17.576C245.013 17.576 247.161 18.128 248.745 19.232C250.329 20.336 251.121 22.088 251.121 24.488V35H245.217L244.893 33.632C244.293 34.16 243.513 34.58 242.553 34.892C241.617 35.204 240.453 35.36 239.061 35.36ZM241.365 31.4C242.133 31.4 242.781 31.268 243.309 31.004C243.861 30.74 244.317 30.416 244.677 30.032V27.908H241.401C239.913 27.908 239.169 28.496 239.169 29.672C239.169 30.824 239.901 31.4 241.365 31.4Z" fill="white"></path><path d="M252.38 35L258.968 26.324L252.632 17.936H259.976L262.64 21.536L265.34 17.936H272.648L266.348 26.324L272.936 35H265.52L262.64 31.184L259.76 35H252.38Z" fill="white"></path><path d="M283.067 35.36C281.075 35.36 279.311 35.036 277.775 34.388C276.263 33.716 275.075 32.72 274.211 31.4C273.371 30.08 272.951 28.448 272.951 26.504C272.951 23.792 273.719 21.632 275.255 20.024C276.791 18.392 279.083 17.576 282.131 17.576C284.915 17.576 287.087 18.284 288.647 19.7C290.231 21.116 291.023 23.048 291.023 25.496V28.484H279.179C279.491 29.396 280.103 30.044 281.015 30.428C281.927 30.812 283.163 31.004 284.723 31.004C285.707 31.004 286.691 30.92 287.675 30.752C288.683 30.56 289.487 30.344 290.087 30.104V34.172C288.407 34.964 286.067 35.36 283.067 35.36ZM279.179 24.812H285.191V24.2C285.191 23.528 284.975 22.976 284.543 22.544C284.135 22.112 283.403 21.896 282.347 21.896C281.171 21.896 280.343 22.148 279.863 22.652C279.407 23.132 279.179 23.852 279.179 24.812Z" fill="white"></path><path d="M300.77 35.36C299.162 35.36 297.758 35.096 296.558 34.568C295.382 34.016 294.458 33.128 293.786 31.904C293.138 30.68 292.814 29.048 292.814 27.008C292.814 24.92 293.186 23.18 293.93 21.788C294.674 20.396 295.67 19.352 296.918 18.656C298.166 17.936 299.522 17.576 300.986 17.576C301.778 17.576 302.558 17.66 303.326 17.828C304.118 17.996 304.802 18.236 305.378 18.548V10.736H312.146V35H306.278L305.954 33.668C305.282 34.196 304.526 34.616 303.686 34.928C302.87 35.216 301.898 35.36 300.77 35.36ZM302.714 30.464C303.746 30.464 304.634 30.116 305.378 29.42V23.372C304.706 22.772 303.818 22.472 302.714 22.472C301.826 22.472 301.106 22.868 300.554 23.66C300.002 24.452 299.726 25.58 299.726 27.044C299.726 28.484 299.966 29.42 300.446 29.852C300.926 30.26 301.682 30.464 302.714 30.464Z" fill="white"></path><path d="M74.6993 21.5H59.6993V19H81.1993C83.9993 20.6 81.366 22.3333 79.6993 23L72.6993 25.5L56.6993 31V54.5H34.1993V31H37.1993V51.5H53.6993V30.5C53.6993 29.7 54.366 29.1667 54.6993 29L74.6993 21.5Z" fill="white"></path><path d="M10.6994 38H34.1994V40.5V43V45.5V48V50.5H11.6994C10.0994 49.3 10.366 48.3333 10.6994 48H34.1994V45.5H11.6994C10.0994 44.3 10.366 43.3333 10.6994 43H34.1994V40.5H11.6994C9.10669 38.7346 10.6994 38 10.6994 38Z" fill="white"></path><path d="M56.6993 33H74.6993L96.1993 25.5H73.1993L80.1993 23H101.699C102.699 23.3333 104.099 24.5 101.699 26.5L74.6993 35.5H56.6993V38H74.6993L100.199 29V30L100.699 30.5V31.5L74.6993 40.5H56.6993V43H74.6993L100.199 34V35L100.699 35.5V36.5L74.6993 45.5H56.6993V48H74.6993L100.199 39V40L100.699 40.5V41.5L74.6993 50.5H56.6993V48V45.5V43V40.5V38V35.5V33Z" fill="white"></path><path d="M59.6993 21.5V19L50.1993 22.5H38.6994L15.1993 30.5L10.6993 32L10.1994 32.5C9.39936 34.9 11.1994 35.5 12.1994 35.5H34.1994V32.5H17.6994L38.6994 25.5H44.1994L35.1994 29C34.3994 29.4 34.1993 30.5 34.1993 31H37.1993L59.6993 21.5Z" fill="#FFF9F9"></path><path d="M52.4063 42.6962C52.4063 46.4872 49.3158 49.5606 45.5038 49.5606C41.6916 49.5606 38.6012 46.4872 38.6012 42.6962C38.6012 38.9051 41.6916 35.8318 45.5038 35.8318C49.3158 35.8318 52.4063 38.9051 52.4063 42.6962Z" fill="#554BCC"></path><path d="M47.1381 42.693C46.8566 42.5613 46.5596 42.4423 46.2701 42.3357C45.277 41.9597 43.7677 41.8468 43.6426 40.6369C43.5174 39.427 45.4255 39.0383 46.6768 39.4459C46.6768 39.4459 45.9965 40.0038 46.7394 40.361C47.5058 40.7185 48.0063 39.9348 47.6309 39.5586C46.669 38.5807 44.0727 39.0321 43.1968 40.0037C42.4069 40.8752 42.5164 42.0474 43.8694 42.693C44.1508 42.8247 44.448 42.9438 44.7374 43.0505C45.7305 43.4265 47.2398 43.5393 47.3649 44.7492C47.49 45.959 45.582 46.3478 44.3307 45.9403C44.3307 45.9403 45.0111 45.3825 44.2681 45.0251C43.5018 44.6677 43.0013 45.4514 43.3767 45.8274C44.3464 46.7991 46.9348 46.354 47.8107 45.3825C48.6007 44.5111 48.491 43.3388 47.1381 42.693Z" fill="white"></path><path d="M46.0591 38.468H45.6837V46.9246H46.0591V38.468Z" fill="white"></path><path d="M45.3161 38.468H44.9407V46.9246H45.3161V38.468Z" fill="white"></path><path d="M127.754 51.1191C127.324 50.3835 126.634 50.0156 125.684 50.0156C124.74 50.0156 124.128 50.276 123.848 50.7969C123.763 50.9466 123.721 51.1029 123.721 51.2656C123.721 51.3893 123.734 51.5033 123.76 51.6074C123.792 51.7116 123.848 51.8092 123.926 51.9004C124.01 51.985 124.076 52.0534 124.121 52.1055C124.173 52.151 124.271 52.2096 124.414 52.2812C124.557 52.3464 124.648 52.3887 124.688 52.4082C124.727 52.4212 124.827 52.4603 124.99 52.5254C125.094 52.5645 125.244 52.6165 125.439 52.6816C125.641 52.7467 125.775 52.7891 125.84 52.8086L126.045 52.877C126.403 52.9941 126.686 53.0918 126.895 53.1699C127.103 53.248 127.36 53.3587 127.666 53.502C127.979 53.6452 128.229 53.7884 128.418 53.9316C128.613 54.0749 128.805 54.2572 128.994 54.4785C129.183 54.6934 129.326 54.9277 129.424 55.1816C129.528 55.4486 129.58 55.748 129.58 56.0801C129.58 56.972 129.18 57.7272 128.379 58.3457C128.138 58.528 127.868 58.6875 127.568 58.8242C127.275 58.9609 126.943 59.0684 126.572 59.1465C126.208 59.2246 125.83 59.2637 125.439 59.2637C123.975 59.2637 122.826 58.7917 121.992 57.8477C121.732 57.5482 121.527 57.2064 121.377 56.8223L123.027 56.0215C123.132 56.5358 123.395 56.9362 123.818 57.2227C124.242 57.5026 124.775 57.6426 125.42 57.6426C125.921 57.6426 126.364 57.5612 126.748 57.3984C127.132 57.2357 127.415 57.0013 127.598 56.6953C127.715 56.5065 127.773 56.3014 127.773 56.0801C127.773 55.8783 127.725 55.6992 127.627 55.543C127.536 55.3802 127.428 55.2533 127.305 55.1621C127.188 55.071 127.038 54.9831 126.855 54.8984C126.582 54.7747 126.234 54.6478 125.811 54.5176C125.394 54.3874 125.02 54.2799 124.688 54.1953C124.362 54.1042 124.017 53.9772 123.652 53.8145C123.288 53.6517 122.985 53.4727 122.744 53.2773C122.503 53.082 122.301 52.8118 122.139 52.4668C121.982 52.1217 121.904 51.7214 121.904 51.2656C121.904 50.5039 122.259 49.8464 122.969 49.293C123.711 48.7201 124.603 48.4336 125.645 48.4336C126.478 48.4336 127.204 48.6126 127.822 48.9707C128.447 49.3288 128.955 49.8138 129.346 50.4258L127.754 51.1191Z" fill="white"></path><path d="M135.537 49.8789C134.456 49.8789 133.789 50.4258 133.535 51.5195L131.846 51.0605C132.126 50.2337 132.585 49.5762 133.223 49.0879C133.861 48.5996 134.671 48.3555 135.654 48.3555C136.279 48.3555 136.842 48.4596 137.344 48.668C137.852 48.8698 138.271 49.1465 138.604 49.498C138.936 49.8431 139.199 50.2565 139.395 50.7383C139.616 51.2721 139.727 51.9036 139.727 52.6328V59.0098H138.066L137.988 57.9648C137.214 58.7982 136.237 59.2148 135.059 59.2148C134.238 59.2148 133.532 59.0456 132.939 58.707C132.354 58.362 131.924 57.8932 131.65 57.3008C131.468 56.8971 131.377 56.4512 131.377 55.9629C131.377 55.5137 131.449 55.1035 131.592 54.7324C131.735 54.3548 131.934 54.0326 132.188 53.7656C132.441 53.4922 132.725 53.2643 133.037 53.082C133.356 52.8932 133.701 52.7435 134.072 52.6328C134.593 52.4766 135.127 52.3984 135.674 52.3984C136.507 52.3984 137.256 52.5677 137.92 52.9062V52.6133C137.92 51.7409 137.725 51.0671 137.334 50.5918C136.943 50.1165 136.344 49.8789 135.537 49.8789ZM135.723 53.9219C134.961 53.9219 134.349 54.0879 133.887 54.4199C133.431 54.7454 133.203 55.2435 133.203 55.9141C133.203 57.0729 133.942 57.6523 135.42 57.6523C135.993 57.6523 136.478 57.5189 136.875 57.252C137.279 56.9785 137.568 56.6172 137.744 56.168C137.861 55.862 137.92 55.5332 137.92 55.1816V54.4785C137.406 54.1074 136.673 53.9219 135.723 53.9219Z" fill="white"></path><path d="M146.035 56.9004L148.955 48.6777H150.801L146.914 59H145.156L141.25 48.6777H143.096L146.035 56.9004Z" fill="white"></path><path d="M160.996 56.5098C160.632 57.3561 160.107 58.0234 159.424 58.5117C158.747 59 157.904 59.2441 156.895 59.2441C156.335 59.2441 155.82 59.1628 155.352 59C154.883 58.8372 154.476 58.6094 154.131 58.3164C153.792 58.0169 153.503 57.6816 153.262 57.3105C153.021 56.9329 152.826 56.5163 152.676 56.0605C152.454 55.3965 152.344 54.6608 152.344 53.8535C152.344 52.6165 152.572 51.5586 153.027 50.6797C153.49 49.7943 154.141 49.153 154.98 48.7559C155.521 48.502 156.113 48.375 156.758 48.375C157.318 48.375 157.829 48.4629 158.291 48.6387C158.753 48.8145 159.147 49.0618 159.473 49.3809C159.798 49.6934 160.072 50.0449 160.293 50.4355C160.521 50.8262 160.71 51.2591 160.859 51.7344C161.074 52.4635 161.182 53.2936 161.182 54.2246H154.082C154.095 55.2663 154.336 56.1029 154.805 56.7344C155.28 57.3594 155.986 57.6719 156.924 57.6719C158.076 57.6719 158.893 57.125 159.375 56.0312L160.996 56.5098ZM159.307 52.6914C159.092 51.3568 158.548 50.5039 157.676 50.1328C157.396 50.0156 157.1 49.957 156.787 49.957C156.247 49.957 155.785 50.1068 155.4 50.4062C155.023 50.6992 154.727 51.0801 154.512 51.5488C154.349 51.8874 154.242 52.2682 154.189 52.6914H159.307Z" fill="white"></path><path d="M170.596 49.5957C170.771 49.3678 170.967 49.1693 171.182 49C171.396 48.8307 171.654 48.6875 171.953 48.5703C172.259 48.4531 172.578 48.3945 172.91 48.3945C173.555 48.3945 174.118 48.5475 174.6 48.8535C175.088 49.1595 175.482 49.5632 175.781 50.0645C176.087 49.5566 176.484 49.153 176.973 48.8535C177.467 48.5475 178.04 48.3945 178.691 48.3945C179.115 48.3945 179.505 48.4596 179.863 48.5898C180.221 48.7201 180.534 48.9023 180.801 49.1367C181.068 49.3646 181.296 49.6217 181.484 49.9082C181.673 50.1947 181.833 50.5104 181.963 50.8555C182.165 51.4023 182.266 52.0371 182.266 52.7598V58.9512H180.576V52.8281C180.576 52.0078 180.407 51.3438 180.068 50.8359C179.73 50.3216 179.209 50.0645 178.506 50.0645C177.822 50.0645 177.308 50.3151 176.963 50.8164C176.618 51.3177 176.445 51.9655 176.445 52.7598V58.9512H174.756V52.8281C174.756 52.0078 174.587 51.3438 174.248 50.8359C173.91 50.3216 173.389 50.0645 172.686 50.0645C171.995 50.0645 171.478 50.3249 171.133 50.8457C170.794 51.36 170.625 52.0208 170.625 52.8281V58.9512H168.936V48.6191H170.527L170.596 49.5957Z" fill="white"></path><path d="M193.037 53.8242C193.037 55.0286 192.806 56.0638 192.344 56.9297C191.882 57.7956 191.234 58.4271 190.4 58.8242C189.86 59.0781 189.268 59.2051 188.623 59.2051C188.083 59.2051 187.585 59.1237 187.129 58.9609C186.673 58.7917 186.279 58.5573 185.947 58.2578C185.622 57.9583 185.342 57.623 185.107 57.252C184.873 56.8809 184.681 56.474 184.531 56.0312C184.316 55.3672 184.209 54.6315 184.209 53.8242C184.209 52.5938 184.437 51.5423 184.893 50.6699C185.348 49.7975 185.999 49.1693 186.846 48.7852C187.386 48.5443 187.979 48.4238 188.623 48.4238C189.17 48.4238 189.671 48.5052 190.127 48.668C190.583 48.8242 190.973 49.0488 191.299 49.3418C191.631 49.6283 191.911 49.957 192.139 50.3281C192.373 50.6927 192.565 51.1029 192.715 51.5586C192.93 52.2227 193.037 52.9779 193.037 53.8242ZM191.299 53.8242C191.299 52.9583 191.169 52.2161 190.908 51.5977C190.648 50.9727 190.254 50.5234 189.727 50.25C189.395 50.0742 189.027 49.9863 188.623 49.9863C188.343 49.9863 188.083 50.0254 187.842 50.1035C187.601 50.1816 187.389 50.2891 187.207 50.4258C187.031 50.556 186.872 50.7188 186.729 50.9141C186.585 51.1029 186.468 51.3014 186.377 51.5098C186.286 51.7181 186.204 51.9492 186.133 52.2031C186.009 52.6784 185.947 53.2188 185.947 53.8242C185.947 54.6641 186.077 55.3932 186.338 56.0117C186.605 56.6302 186.999 57.0794 187.52 57.3594C187.845 57.5417 188.213 57.6328 188.623 57.6328C188.968 57.6328 189.281 57.5742 189.561 57.457C189.847 57.3333 190.088 57.1641 190.283 56.9492C190.485 56.7344 190.651 56.5 190.781 56.2461C190.918 55.9922 191.029 55.709 191.113 55.3965C191.237 54.9277 191.299 54.4036 191.299 53.8242Z" fill="white"></path><path d="M196.67 49.5762C197.314 48.7689 198.216 48.3652 199.375 48.3652C200.286 48.3652 201.051 48.5768 201.67 49C202.288 49.4167 202.751 49.9896 203.057 50.7188C203.291 51.2721 203.408 51.9427 203.408 52.7305V59H201.709V52.8281C201.709 51.9818 201.491 51.3047 201.055 50.7969C200.618 50.2891 200.007 50.0352 199.219 50.0352C198.646 50.0352 198.164 50.1751 197.773 50.4551C197.383 50.735 197.096 51.1126 196.914 51.5879C196.771 51.9395 196.699 52.3529 196.699 52.8281V59H195.01V48.5898H196.602L196.67 49.5762Z" fill="white"></path><path d="M213.984 56.5098C213.62 57.3561 213.096 58.0234 212.412 58.5117C211.735 59 210.892 59.2441 209.883 59.2441C209.323 59.2441 208.809 59.1628 208.34 59C207.871 58.8372 207.464 58.6094 207.119 58.3164C206.781 58.0169 206.491 57.6816 206.25 57.3105C206.009 56.9329 205.814 56.5163 205.664 56.0605C205.443 55.3965 205.332 54.6608 205.332 53.8535C205.332 52.6165 205.56 51.5586 206.016 50.6797C206.478 49.7943 207.129 49.153 207.969 48.7559C208.509 48.502 209.102 48.375 209.746 48.375C210.306 48.375 210.817 48.4629 211.279 48.6387C211.742 48.8145 212.135 49.0618 212.461 49.3809C212.786 49.6934 213.06 50.0449 213.281 50.4355C213.509 50.8262 213.698 51.2591 213.848 51.7344C214.062 52.4635 214.17 53.2936 214.17 54.2246H207.07C207.083 55.2663 207.324 56.1029 207.793 56.7344C208.268 57.3594 208.975 57.6719 209.912 57.6719C211.064 57.6719 211.882 57.125 212.363 56.0312L213.984 56.5098ZM212.295 52.6914C212.08 51.3568 211.536 50.5039 210.664 50.1328C210.384 50.0156 210.088 49.957 209.775 49.957C209.235 49.957 208.773 50.1068 208.389 50.4062C208.011 50.6992 207.715 51.0801 207.5 51.5488C207.337 51.8874 207.23 52.2682 207.178 52.6914H212.295Z" fill="white"></path><path d="M216.445 61.4512C216.582 61.5488 216.683 61.6172 216.748 61.6562C216.813 61.7018 216.914 61.7507 217.051 61.8027C217.194 61.8548 217.334 61.8809 217.471 61.8809C217.887 61.8809 218.275 61.6497 218.633 61.1875C218.724 61.0703 218.812 60.9368 218.896 60.7871C218.988 60.6374 219.066 60.4974 219.131 60.3672C219.196 60.237 219.268 60.0742 219.346 59.8789C219.424 59.6901 219.486 59.5339 219.531 59.4102C219.577 59.293 219.639 59.127 219.717 58.9121C219.795 58.6973 219.854 58.5378 219.893 58.4336L215.869 48.668H217.715L220.82 56.3047L223.76 48.668H225.615L221.572 58.9316C221.429 59.2962 221.331 59.5371 221.279 59.6543C221.234 59.778 221.136 60.0091 220.986 60.3477C220.843 60.6862 220.726 60.9303 220.635 61.0801C220.55 61.2298 220.423 61.4382 220.254 61.7051C220.091 61.972 219.935 62.1771 219.785 62.3203C219.642 62.4701 219.469 62.6263 219.268 62.7891C219.072 62.9518 218.864 63.082 218.643 63.1797C218.33 63.3229 217.988 63.3945 217.617 63.3945C217.266 63.3945 216.911 63.3229 216.553 63.1797C216.201 63.0365 215.905 62.8639 215.664 62.6621L216.445 61.4512Z" fill="white"></path><path d="M228.525 59.0879C228.2 59.0423 227.943 58.8861 227.754 58.6191C227.565 58.3457 227.471 58.0137 227.471 57.623C227.471 57.3105 227.542 57.0306 227.686 56.7832C227.829 56.5358 228.014 56.347 228.242 56.2168C228.398 56.1257 228.577 56.0801 228.779 56.0801C229.268 56.0801 229.639 56.2819 229.893 56.6855C230.153 57.0892 230.283 57.5742 230.283 58.1406C230.283 58.8112 230.153 59.4297 229.893 59.9961C229.639 60.5625 229.31 61.0443 228.906 61.4414C228.613 61.7279 228.281 61.9395 227.91 62.0762L227.373 61.4609C227.562 61.2656 227.699 61.1159 227.783 61.0117C227.874 60.9076 227.988 60.7546 228.125 60.5527C228.268 60.3509 228.369 60.1426 228.428 59.9277C228.493 59.7194 228.525 59.4915 228.525 59.2441C228.525 59.2246 228.525 59.2018 228.525 59.1758V59.0879Z" fill="white"></path><path d="M241.719 59.1953C241.1 59.1953 240.576 59.0846 240.146 58.8633C239.717 58.6419 239.388 58.3132 239.16 57.877C238.939 57.4342 238.828 56.8939 238.828 56.2559V50.2598H237.48V48.7266H238.828V45.9336H240.518V48.7266H243.154V50.2598H240.518V56.2559C240.518 56.6986 240.658 57.0306 240.938 57.252C241.217 57.4733 241.572 57.584 242.002 57.584C242.113 57.584 242.227 57.5775 242.344 57.5645C242.467 57.5449 242.588 57.5189 242.705 57.4863C242.829 57.4538 242.949 57.4147 243.066 57.3691L243.555 58.9023C242.904 59.0977 242.292 59.1953 241.719 59.1953Z" fill="white"></path><path d="M246.855 49.5371C247.5 48.7559 248.392 48.3652 249.531 48.3652C250.443 48.3652 251.208 48.5768 251.826 49C252.445 49.4167 252.907 49.9896 253.213 50.7188C253.447 51.2721 253.564 51.9427 253.564 52.7305V59H251.865V52.7793C251.865 51.9329 251.647 51.2559 251.211 50.748C250.775 50.2402 250.163 49.9863 249.375 49.9863C248.802 49.9863 248.32 50.1263 247.93 50.4062C247.539 50.6862 247.253 51.0638 247.07 51.5391C246.927 51.8906 246.855 52.304 246.855 52.7793V59H245.166V44.7227H246.855V49.5371Z" fill="white"></path><path d="M264.18 56.5098C263.815 57.3561 263.291 58.0234 262.607 58.5117C261.93 59 261.087 59.2441 260.078 59.2441C259.518 59.2441 259.004 59.1628 258.535 59C258.066 58.8372 257.66 58.6094 257.314 58.3164C256.976 58.0169 256.686 57.6816 256.445 57.3105C256.204 56.9329 256.009 56.5163 255.859 56.0605C255.638 55.3965 255.527 54.6608 255.527 53.8535C255.527 52.6165 255.755 51.5586 256.211 50.6797C256.673 49.7943 257.324 49.153 258.164 48.7559C258.704 48.502 259.297 48.375 259.941 48.375C260.501 48.375 261.012 48.4629 261.475 48.6387C261.937 48.8145 262.331 49.0618 262.656 49.3809C262.982 49.6934 263.255 50.0449 263.477 50.4355C263.704 50.8262 263.893 51.2591 264.043 51.7344C264.258 52.4635 264.365 53.2936 264.365 54.2246H257.266C257.279 55.2663 257.52 56.1029 257.988 56.7344C258.464 57.3594 259.17 57.6719 260.107 57.6719C261.26 57.6719 262.077 57.125 262.559 56.0312L264.18 56.5098ZM262.49 52.6914C262.275 51.3568 261.732 50.5039 260.859 50.1328C260.579 50.0156 260.283 49.957 259.971 49.957C259.43 49.957 258.968 50.1068 258.584 50.4062C258.206 50.6992 257.91 51.0801 257.695 51.5488C257.533 51.8874 257.425 52.2682 257.373 52.6914H262.49Z" fill="white"></path><path d="M280.742 56.5098C280.378 57.3561 279.854 58.0234 279.17 58.5117C278.493 59 277.65 59.2441 276.641 59.2441C276.081 59.2441 275.566 59.1628 275.098 59C274.629 58.8372 274.222 58.6094 273.877 58.3164C273.538 58.0169 273.249 57.6816 273.008 57.3105C272.767 56.9329 272.572 56.5163 272.422 56.0605C272.201 55.3965 272.09 54.6608 272.09 53.8535C272.09 52.6165 272.318 51.5586 272.773 50.6797C273.236 49.7943 273.887 49.153 274.727 48.7559C275.267 48.502 275.859 48.375 276.504 48.375C277.064 48.375 277.575 48.4629 278.037 48.6387C278.499 48.8145 278.893 49.0618 279.219 49.3809C279.544 49.6934 279.818 50.0449 280.039 50.4355C280.267 50.8262 280.456 51.2591 280.605 51.7344C280.82 52.4635 280.928 53.2936 280.928 54.2246H273.828C273.841 55.2663 274.082 56.1029 274.551 56.7344C275.026 57.3594 275.732 57.6719 276.67 57.6719C277.822 57.6719 278.639 57.125 279.121 56.0312L280.742 56.5098ZM279.053 52.6914C278.838 51.3568 278.294 50.5039 277.422 50.1328C277.142 50.0156 276.846 49.957 276.533 49.957C275.993 49.957 275.531 50.1068 275.146 50.4062C274.769 50.6992 274.473 51.0801 274.258 51.5488C274.095 51.8874 273.988 52.2682 273.936 52.6914H279.053Z" fill="white"></path><path d="M286.826 49.8789C285.745 49.8789 285.078 50.4258 284.824 51.5195L283.135 51.0605C283.415 50.2337 283.874 49.5762 284.512 49.0879C285.15 48.5996 285.96 48.3555 286.943 48.3555C287.568 48.3555 288.132 48.4596 288.633 48.668C289.141 48.8698 289.561 49.1465 289.893 49.498C290.225 49.8431 290.488 50.2565 290.684 50.7383C290.905 51.2721 291.016 51.9036 291.016 52.6328V59.0098H289.355L289.277 57.9648C288.503 58.7982 287.526 59.2148 286.348 59.2148C285.527 59.2148 284.821 59.0456 284.229 58.707C283.643 58.362 283.213 57.8932 282.939 57.3008C282.757 56.8971 282.666 56.4512 282.666 55.9629C282.666 55.5137 282.738 55.1035 282.881 54.7324C283.024 54.3548 283.223 54.0326 283.477 53.7656C283.73 53.4922 284.014 53.2643 284.326 53.082C284.645 52.8932 284.99 52.7435 285.361 52.6328C285.882 52.4766 286.416 52.3984 286.963 52.3984C287.796 52.3984 288.545 52.5677 289.209 52.9062V52.6133C289.209 51.7409 289.014 51.0671 288.623 50.5918C288.232 50.1165 287.633 49.8789 286.826 49.8789ZM287.012 53.9219C286.25 53.9219 285.638 54.0879 285.176 54.4199C284.72 54.7454 284.492 55.2435 284.492 55.9141C284.492 57.0729 285.231 57.6523 286.709 57.6523C287.282 57.6523 287.767 57.5189 288.164 57.252C288.568 56.9785 288.857 56.6172 289.033 56.168C289.15 55.862 289.209 55.5332 289.209 55.1816V54.4785C288.695 54.1074 287.962 53.9219 287.012 53.9219Z" fill="white"></path><path d="M298.77 51.1191C298.34 50.3835 297.65 50.0156 296.699 50.0156C295.755 50.0156 295.143 50.276 294.863 50.7969C294.779 50.9466 294.736 51.1029 294.736 51.2656C294.736 51.3893 294.749 51.5033 294.775 51.6074C294.808 51.7116 294.863 51.8092 294.941 51.9004C295.026 51.985 295.091 52.0534 295.137 52.1055C295.189 52.151 295.286 52.2096 295.43 52.2812C295.573 52.3464 295.664 52.3887 295.703 52.4082C295.742 52.4212 295.843 52.4603 296.006 52.5254C296.11 52.5645 296.26 52.6165 296.455 52.6816C296.657 52.7467 296.79 52.7891 296.855 52.8086L297.061 52.877C297.419 52.9941 297.702 53.0918 297.91 53.1699C298.118 53.248 298.376 53.3587 298.682 53.502C298.994 53.6452 299.245 53.7884 299.434 53.9316C299.629 54.0749 299.821 54.2572 300.01 54.4785C300.199 54.6934 300.342 54.9277 300.439 55.1816C300.544 55.4486 300.596 55.748 300.596 56.0801C300.596 56.972 300.195 57.7272 299.395 58.3457C299.154 58.528 298.883 58.6875 298.584 58.8242C298.291 58.9609 297.959 59.0684 297.588 59.1465C297.223 59.2246 296.846 59.2637 296.455 59.2637C294.99 59.2637 293.841 58.7917 293.008 57.8477C292.747 57.5482 292.542 57.2064 292.393 56.8223L294.043 56.0215C294.147 56.5358 294.411 56.9362 294.834 57.2227C295.257 57.5026 295.791 57.6426 296.436 57.6426C296.937 57.6426 297.38 57.5612 297.764 57.3984C298.148 57.2357 298.431 57.0013 298.613 56.6953C298.73 56.5065 298.789 56.3014 298.789 56.0801C298.789 55.8783 298.74 55.6992 298.643 55.543C298.551 55.3802 298.444 55.2533 298.32 55.1621C298.203 55.071 298.053 54.9831 297.871 54.8984C297.598 54.7747 297.249 54.6478 296.826 54.5176C296.41 54.3874 296.035 54.2799 295.703 54.1953C295.378 54.1042 295.033 53.9772 294.668 53.8145C294.303 53.6517 294.001 53.4727 293.76 53.2773C293.519 53.082 293.317 52.8118 293.154 52.4668C292.998 52.1217 292.92 51.7214 292.92 51.2656C292.92 50.5039 293.275 49.8464 293.984 49.293C294.727 48.7201 295.618 48.4336 296.66 48.4336C297.493 48.4336 298.219 48.6126 298.838 48.9707C299.463 49.3288 299.971 49.8138 300.361 50.4258L298.77 51.1191Z" fill="white"></path><path d="M302.93 61.4512C303.066 61.5488 303.167 61.6172 303.232 61.6562C303.298 61.7018 303.398 61.7507 303.535 61.8027C303.678 61.8548 303.818 61.8809 303.955 61.8809C304.372 61.8809 304.759 61.6497 305.117 61.1875C305.208 61.0703 305.296 60.9368 305.381 60.7871C305.472 60.6374 305.55 60.4974 305.615 60.3672C305.68 60.237 305.752 60.0742 305.83 59.8789C305.908 59.6901 305.97 59.5339 306.016 59.4102C306.061 59.293 306.123 59.127 306.201 58.9121C306.279 58.6973 306.338 58.5378 306.377 58.4336L302.354 48.668H304.199L307.305 56.3047L310.244 48.668H312.1L308.057 58.9316C307.913 59.2962 307.816 59.5371 307.764 59.6543C307.718 59.778 307.62 60.0091 307.471 60.3477C307.327 60.6862 307.21 60.9303 307.119 61.0801C307.035 61.2298 306.908 61.4382 306.738 61.7051C306.576 61.972 306.419 62.1771 306.27 62.3203C306.126 62.4701 305.954 62.6263 305.752 62.7891C305.557 62.9518 305.348 63.082 305.127 63.1797C304.814 63.3229 304.473 63.3945 304.102 63.3945C303.75 63.3945 303.395 63.3229 303.037 63.1797C302.686 63.0365 302.389 62.8639 302.148 62.6621L302.93 61.4512Z" fill="white"></path><path d="M327.061 48.6875L329.268 56.793L331.338 48.6875H333.174L330.156 59.0098H328.379L326.24 51.0703L324.131 59.0098H322.354L319.326 48.6875H321.172L323.242 56.793L325.449 48.6875H327.061Z" fill="white"></path><path d="M338.721 49.8789C337.64 49.8789 336.973 50.4258 336.719 51.5195L335.029 51.0605C335.309 50.2337 335.768 49.5762 336.406 49.0879C337.044 48.5996 337.855 48.3555 338.838 48.3555C339.463 48.3555 340.026 48.4596 340.527 48.668C341.035 48.8698 341.455 49.1465 341.787 49.498C342.119 49.8431 342.383 50.2565 342.578 50.7383C342.799 51.2721 342.91 51.9036 342.91 52.6328V59.0098H341.25L341.172 57.9648C340.397 58.7982 339.421 59.2148 338.242 59.2148C337.422 59.2148 336.715 59.0456 336.123 58.707C335.537 58.362 335.107 57.8932 334.834 57.3008C334.652 56.8971 334.561 56.4512 334.561 55.9629C334.561 55.5137 334.632 55.1035 334.775 54.7324C334.919 54.3548 335.117 54.0326 335.371 53.7656C335.625 53.4922 335.908 53.2643 336.221 53.082C336.54 52.8932 336.885 52.7435 337.256 52.6328C337.777 52.4766 338.311 52.3984 338.857 52.3984C339.691 52.3984 340.439 52.5677 341.104 52.9062V52.6133C341.104 51.7409 340.908 51.0671 340.518 50.5918C340.127 50.1165 339.528 49.8789 338.721 49.8789ZM338.906 53.9219C338.145 53.9219 337.533 54.0879 337.07 54.4199C336.615 54.7454 336.387 55.2435 336.387 55.9141C336.387 57.0729 337.126 57.6523 338.604 57.6523C339.176 57.6523 339.661 57.5189 340.059 57.252C340.462 56.9785 340.752 56.6172 340.928 56.168C341.045 55.862 341.104 55.5332 341.104 55.1816V54.4785C340.589 54.1074 339.857 53.9219 338.906 53.9219Z" fill="white"></path><path d="M345.254 61.4512C345.391 61.5488 345.492 61.6172 345.557 61.6562C345.622 61.7018 345.723 61.7507 345.859 61.8027C346.003 61.8548 346.143 61.8809 346.279 61.8809C346.696 61.8809 347.083 61.6497 347.441 61.1875C347.533 61.0703 347.62 60.9368 347.705 60.7871C347.796 60.6374 347.874 60.4974 347.939 60.3672C348.005 60.237 348.076 60.0742 348.154 59.8789C348.232 59.6901 348.294 59.5339 348.34 59.4102C348.385 59.293 348.447 59.127 348.525 58.9121C348.604 58.6973 348.662 58.5378 348.701 58.4336L344.678 48.668H346.523L349.629 56.3047L352.568 48.668H354.424L350.381 58.9316C350.238 59.2962 350.14 59.5371 350.088 59.6543C350.042 59.778 349.945 60.0091 349.795 60.3477C349.652 60.6862 349.535 60.9303 349.443 61.0801C349.359 61.2298 349.232 61.4382 349.062 61.7051C348.9 61.972 348.743 62.1771 348.594 62.3203C348.451 62.4701 348.278 62.6263 348.076 62.7891C347.881 62.9518 347.673 63.082 347.451 63.1797C347.139 63.3229 346.797 63.3945 346.426 63.3945C346.074 63.3945 345.719 63.3229 345.361 63.1797C345.01 63.0365 344.714 62.8639 344.473 62.6621L345.254 61.4512Z" fill="white"></path><path d="M358.525 56.5879C358.766 56.8874 358.887 57.2487 358.887 57.6719C358.887 58.0951 358.766 58.4564 358.525 58.7559C358.291 59.0553 357.975 59.2051 357.578 59.2051C357.181 59.2051 356.862 59.0586 356.621 58.7656C356.387 58.4661 356.27 58.1016 356.27 57.6719C356.27 57.3594 356.341 57.0827 356.484 56.8418C356.628 56.5944 356.813 56.4023 357.041 56.2656C357.204 56.1745 357.383 56.1289 357.578 56.1289C357.969 56.1289 358.285 56.2819 358.525 56.5879Z" fill="white"></path></svg> 